Coordinates
version=1
nRows=13
nColumns=38
inDegrees=no

Units are S.I. units (second, meters, Newtons, ...)
If the header above contains a line with 'inDegrees', this indicates whether rotational values are in degrees (yes) or radians (no).

endheader
time	pelvis_tilt	pelvis_list	pelvis_rotation	pelvis_tx	pelvis_ty	pelvis_tz	hip_flexion_r	hip_adduction_r	hip_rotation_r	knee_angle_r	ankle_angle_r	subtalar_angle_r	mtp_angle_r	hip_flexion_l	hip_adduction_l	hip_rotation_l	knee_angle_l	ankle_angle_l	subtalar_angle_l	mtp_angle_l	lumbar_extension	lumbar_bending	lumbar_rotation	arm_flex_r	arm_add_r	arm_rot_r	elbow_flex_r	pro_sup_r	wrist_flex_r	wrist_dev_r	arm_flex_l	arm_add_l	arm_rot_l	elbow_flex_l	pro_sup_l	wrist_flex_l	wrist_dev_l
1.41	0.870502	1.44631	0.931793	0.621422	1.74284	0.99175	0.541328	0.0658979	-0.0573204	0.222872	-0.306015	0	0	-0.0647232	-0.151352	-0.192461	0.652979	-0.101191	0	0	-0.0455489	0.120976	-0.0984862	-0.318584	-0.313357	0.22852	0.56752	1.07095	0	0	0.459639	-0.578081	0.944613	0.487109	1.1723	0	0
1.42	0.899597	1.44474	0.900864	0.621224	1.7555	0.992199	0.547653	0.0721658	-0.0644508	0.261063	-0.339501	0	0	-0.0666812	-0.157428	-0.188339	0.672953	-0.115994	0	0	-0.0457549	0.128493	-0.0923316	-0.323788	-0.308906	0.210011	0.565393	1.08945	0	0	0.453301	-0.570114	0.958819	0.472887	1.16363	0	0
1.43	0.9071	1.44317	0.890837	0.621009	1.76817	0.992496	0.558673	0.0745474	-0.0759996	0.307527	-0.355916	0	0	-0.0639754	-0.160753	-0.183364	0.698207	-0.134459	0	0	-0.0437395	0.13386	-0.088092	-0.327919	-0.304877	0.19449	0.562737	1.10528	0	0	0.442262	-0.564704	0.968722	0.46246	1.1514	0	0
1.44	0.886911	1.44008	0.907882	0.620867	1.78096	0.992568	0.574487	0.0742659	-0.0879513	0.357717	-0.316976	0	0	-0.0542191	-0.161906	-0.177296	0.728415	-0.162506	0	0	-0.0367096	0.136463	-0.0896294	-0.32499	-0.30816	0.214607	0.555763	1.08243	0	0	0.420494	-0.56496	0.961838	0.460213	1.14253	0	0
1.45	0.891398	1.4392	0.900169	0.620871	1.79374	0.9932	0.579503	0.0767724	-0.0946858	0.392516	-0.295733	0	0	-0.0457518	-0.164567	-0.170895	0.761449	-0.186441	0	0	-0.0358769	0.14072	-0.093992	-0.319655	-0.311498	0.232385	0.550797	1.06223	0	0	0.391704	-0.56725	0.932117	0.463804	1.15185	0	0
1.46	0.906831	1.43889	0.881959	0.621008	1.80645	0.994058	0.579777	0.0805853	-0.103454	0.422249	-0.27208	0	0	-0.0357771	-0.167818	-0.161574	0.797206	-0.203504	0	0	-0.0376019	0.145624	-0.100604	-0.313648	-0.314573	0.246797	0.548401	1.04181	0	0	0.359036	-0.571964	0.895618	0.473313	1.15824	0	0
1.47	0.939288	1.43898	0.84642	0.621336	1.81908	0.995219	0.571484	0.0870675	-0.111234	0.435645	-0.282777	0	0	-0.0254103	-0.172914	-0.15263	0.833965	-0.227965	0	0	-0.0399674	0.151562	-0.0923373	-0.316941	-0.309153	0.235723	0.543411	1.05226	0	0	0.351806	-0.563398	0.913312	0.458857	1.15151	0	0
1.48	0.963282	1.43742	0.81987	0.621688	1.83151	0.996139	0.564767	0.0925148	-0.124767	0.448385	-0.283004	0	0	-0.00899001	-0.178238	-0.141916	0.875812	-0.262681	0	0	-0.0403635	0.157787	-0.0856122	-0.320835	-0.303699	0.222837	0.540153	1.06259	0	0	0.342771	-0.556658	0.9323	0.44807	1.13774	0	0
1.49	0.969168	1.43472	0.811183	0.622159	1.84369	0.996719	0.560972	0.0967902	-0.13898	0.463435	-0.245965	0	0	0.0130328	-0.181828	-0.128678	0.920058	-0.311168	0	0	-0.0365085	0.162118	-0.0773133	-0.325489	-0.298281	0.213087	0.536019	1.06539	0	0	0.339284	-0.551612	0.980849	0.437486	1.09597	0	0
1.5	0.98134	1.43253	0.795594	0.622608	1.85558	0.99745	0.552658	0.102451	-0.14926	0.469458	-0.232477	0	0	0.0350317	-0.183525	-0.11111	0.965697	-0.332615	0	0	-0.0374232	0.167364	-0.0755249	-0.32316	-0.299073	0.221983	0.53365	1.05509	0	0	0.318063	-0.550463	0.963848	0.440141	1.1094	0	0
1.51	0.988222	1.42995	0.785114	0.622986	1.86726	0.998121	0.544576	0.107806	-0.158652	0.474929	-0.21281	0	0	0.0595429	-0.184002	-0.092065	1.01301	-0.352721	0	0	-0.0382588	0.172438	-0.0755914	-0.318956	-0.301244	0.235053	0.531103	1.04145	0	0	0.292994	-0.550534	0.936171	0.446705	1.13057	0	0
1.52	1.00019	1.42949	0.76846	0.623386	1.87875	0.999021	0.533477	0.112751	-0.163821	0.479446	-0.194327	0	0	0.0822184	-0.18328	-0.0755386	1.05935	-0.36523	0	0	-0.0425453	0.176533	-0.0754216	-0.313891	-0.303299	0.245981	0.529554	1.02959	0	0	0.266709	-0.551347	0.904732	0.456215	1.14816	0	0
1.53	1.03411	1.43253	0.729151	0.62386	1.88999	1.00038	0.514095	0.118489	-0.162949	0.475706	-0.198161	0	0	0.100725	-0.182908	-0.0631323	1.10351	-0.400156	0	0	-0.047829	0.179243	-0.0494393	-0.325579	-0.290978	0.209379	0.525352	1.05055	0	0	0.289316	-0.538333	1.00764	0.43271	1.08763	0	0
